# MagicaVoxel @ Ephtracy

# group
o 

# material
mtllib Simple Gun.mtl
usemtl palette

# normals
vn -1 0 0
vn 1 0 0
vn 0 0 1
vn 0 0 -1
vn 0 -1 0
vn 0 1 0

# texcoords
vt 0.978516 0.5
vt 0.982422 0.5

# verts
v -2 0.7 -0.1
v -2 0.7 -0.2
v -2 0.8 -0.1
v -2 0.8 -0.2
v -1.7 0.6 -0.1
v -1.7 0.6 -0.2
v -1.7 0.7 2.23517e-008
v -1.7 0.7 -0.1
v -1.7 0.7 -0.2
v -1.7 0.7 -0.3
v -1.7 0.8 2.23517e-008
v -1.7 0.8 -0.1
v -1.7 0.8 -0.2
v -1.7 0.8 -0.3
v -1.7 0.9 -0.1
v -1.7 0.9 -0.2
v -1.2 0.6 2.23517e-008
v -1.2 0.6 -0.1
v -1.2 0.6 -0.2
v -1.2 0.6 -0.3
v -1.2 0.7 2.23517e-008
v -1.2 0.7 -0.1
v -1.2 0.7 -0.2
v -1.2 0.7 -0.3
v -1.2 0.8 2.23517e-008
v -1.2 0.8 -0.1
v -1.2 0.8 -0.2
v -1.2 0.8 -0.3
v -1.2 0.9 2.23517e-008
v -1.2 0.9 -0.1
v -1.2 0.9 -0.2
v -1.2 0.9 -0.3
v -1.1 0.5 -0.1
v -1.1 0.5 -0.2
v -1.1 0.6 -0.1
v -1.1 0.6 -0.2
v -1.1 0.9 -0.1
v -1.1 0.9 -0.2
v -1.1 1 -0.1
v -1.1 1 -0.2
v -1 0.4 -0.1
v -1 0.4 -0.2
v -1 0.5 -0.1
v -1 0.5 -0.2
v -0.9 0.1 -0.1
v -0.9 0.1 -0.2
v -0.9 0.4 -0.1
v -0.9 0.4 -0.2
v -0.9 0.5 -0.1
v -0.9 0.5 -0.2
v -0.9 0.6 -0.1
v -0.9 0.6 -0.2
v -0.8 0 -0.1
v -0.8 0 -0.2
v -0.8 0.1 -0.1
v -0.8 0.1 -0.2
v -1 0.5 -0.1
v -1 0.5 -0.2
v -1 0.6 -0.1
v -1 0.6 -0.2
v -0.9 0.6 2.23517e-008
v -0.9 0.6 -0.1
v -0.9 0.6 -0.2
v -0.9 0.6 -0.3
v -0.9 0.7 2.23517e-008
v -0.9 0.7 -0.1
v -0.9 0.7 -0.2
v -0.9 0.7 -0.3
v -0.8 0.9 -0.1
v -0.8 0.9 -0.2
v -0.8 1 -0.1
v -0.8 1 -0.2
v -0.7 0.8 2.23517e-008
v -0.7 0.8 -0.1
v -0.7 0.8 -0.2
v -0.7 0.8 -0.3
v -0.7 0.9 2.23517e-008
v -0.7 0.9 -0.1
v -0.7 0.9 -0.2
v -0.7 0.9 -0.3
v -0.6 0 -0.1
v -0.6 0 -0.2
v -0.6 0.6 -0.1
v -0.6 0.6 -0.2
v -0.5 0.6 -0.1
v -0.5 0.6 -0.2
v -0.5 0.7 2.23517e-008
v -0.5 0.7 -0.1
v -0.5 0.7 -0.2
v -0.5 0.7 -0.3
v -0.5 0.8 2.23517e-008
v -0.5 0.8 -0.1
v -0.5 0.8 -0.2
v -0.5 0.8 -0.3
v -0.5 0.9 -0.1
v -0.5 0.9 -0.2
v -1.7 0.7 2.23517e-008
v -1.7 0.8 2.23517e-008
v -1.2 0.6 2.23517e-008
v -1.2 0.7 2.23517e-008
v -1.2 0.8 2.23517e-008
v -1.2 0.9 2.23517e-008
v -0.9 0.6 2.23517e-008
v -0.9 0.7 2.23517e-008
v -0.7 0.8 2.23517e-008
v -0.7 0.9 2.23517e-008
v -0.5 0.7 2.23517e-008
v -0.5 0.8 2.23517e-008
v -2 0.7 -0.1
v -2 0.8 -0.1
v -1.7 0.6 -0.1
v -1.7 0.7 -0.1
v -1.7 0.8 -0.1
v -1.7 0.9 -0.1
v -1.2 0.6 -0.1
v -1.2 0.7 -0.1
v -1.2 0.8 -0.1
v -1.2 0.9 -0.1
v -1.1 0.5 -0.1
v -1.1 0.6 -0.1
v -1.1 0.9 -0.1
v -1.1 1 -0.1
v -1 0.4 -0.1
v -1 0.5 -0.1
v -1 0.6 -0.1
v -0.9 0.1 -0.1
v -0.9 0.4 -0.1
v -0.9 0.5 -0.1
v -0.9 0.6 -0.1
v -0.9 0.7 -0.1
v -0.8 0 -0.1
v -0.8 0.1 -0.1
v -0.8 0.9 -0.1
v -0.8 1 -0.1
v -0.7 0.8 -0.1
v -0.7 0.9 -0.1
v -0.6 0 -0.1
v -0.6 0.6 -0.1
v -0.5 0.6 -0.1
v -0.5 0.7 -0.1
v -0.5 0.8 -0.1
v -0.5 0.9 -0.1
v -2 0.7 -0.2
v -2 0.8 -0.2
v -1.7 0.6 -0.2
v -1.7 0.7 -0.2
v -1.7 0.8 -0.2
v -1.7 0.9 -0.2
v -1.2 0.6 -0.2
v -1.2 0.7 -0.2
v -1.2 0.8 -0.2
v -1.2 0.9 -0.2
v -1.1 0.5 -0.2
v -1.1 0.6 -0.2
v -1.1 0.9 -0.2
v -1.1 1 -0.2
v -1 0.4 -0.2
v -1 0.5 -0.2
v -1 0.6 -0.2
v -0.9 0.1 -0.2
v -0.9 0.4 -0.2
v -0.9 0.5 -0.2
v -0.9 0.6 -0.2
v -0.9 0.7 -0.2
v -0.8 0 -0.2
v -0.8 0.1 -0.2
v -0.8 0.9 -0.2
v -0.8 1 -0.2
v -0.7 0.8 -0.2
v -0.7 0.9 -0.2
v -0.6 0 -0.2
v -0.6 0.6 -0.2
v -0.5 0.6 -0.2
v -0.5 0.7 -0.2
v -0.5 0.8 -0.2
v -0.5 0.9 -0.2
v -1.7 0.7 -0.3
v -1.7 0.8 -0.3
v -1.2 0.6 -0.3
v -1.2 0.7 -0.3
v -1.2 0.8 -0.3
v -1.2 0.9 -0.3
v -0.9 0.6 -0.3
v -0.9 0.7 -0.3
v -0.7 0.8 -0.3
v -0.7 0.9 -0.3
v -0.5 0.7 -0.3
v -0.5 0.8 -0.3
v -0.8 0 -0.1
v -0.6 0 -0.1
v -0.8 0 -0.2
v -0.6 0 -0.2
v -0.9 0.1 -0.1
v -0.8 0.1 -0.1
v -0.9 0.1 -0.2
v -0.8 0.1 -0.2
v -1 0.4 -0.1
v -0.9 0.4 -0.1
v -1 0.4 -0.2
v -0.9 0.4 -0.2
v -1.1 0.5 -0.1
v -1 0.5 -0.1
v -1.1 0.5 -0.2
v -1 0.5 -0.2
v -1.2 0.6 2.23517e-008
v -0.9 0.6 2.23517e-008
v -1.7 0.6 -0.1
v -1.2 0.6 -0.1
v -1.1 0.6 -0.1
v -1 0.6 -0.1
v -0.9 0.6 -0.1
v -0.6 0.6 -0.1
v -0.5 0.6 -0.1
v -1.7 0.6 -0.2
v -1.2 0.6 -0.2
v -1.1 0.6 -0.2
v -1 0.6 -0.2
v -0.9 0.6 -0.2
v -0.6 0.6 -0.2
v -0.5 0.6 -0.2
v -1.2 0.6 -0.3
v -0.9 0.6 -0.3
v -1.7 0.7 2.23517e-008
v -1.2 0.7 2.23517e-008
v -0.9 0.7 2.23517e-008
v -0.5 0.7 2.23517e-008
v -2 0.7 -0.1
v -1.7 0.7 -0.1
v -1.2 0.7 -0.1
v -0.9 0.7 -0.1
v -0.5 0.7 -0.1
v -2 0.7 -0.2
v -1.7 0.7 -0.2
v -1.2 0.7 -0.2
v -0.9 0.7 -0.2
v -0.5 0.7 -0.2
v -1.7 0.7 -0.3
v -1.2 0.7 -0.3
v -0.9 0.7 -0.3
v -0.5 0.7 -0.3
v -1 0.5 -0.1
v -0.9 0.5 -0.1
v -1 0.5 -0.2
v -0.9 0.5 -0.2
v -1.7 0.8 2.23517e-008
v -1.2 0.8 2.23517e-008
v -0.7 0.8 2.23517e-008
v -0.5 0.8 2.23517e-008
v -2 0.8 -0.1
v -1.7 0.8 -0.1
v -1.2 0.8 -0.1
v -0.7 0.8 -0.1
v -0.5 0.8 -0.1
v -2 0.8 -0.2
v -1.7 0.8 -0.2
v -1.2 0.8 -0.2
v -0.7 0.8 -0.2
v -0.5 0.8 -0.2
v -1.7 0.8 -0.3
v -1.2 0.8 -0.3
v -0.7 0.8 -0.3
v -0.5 0.8 -0.3
v -1.2 0.9 2.23517e-008
v -0.7 0.9 2.23517e-008
v -1.7 0.9 -0.1
v -1.2 0.9 -0.1
v -1.1 0.9 -0.1
v -0.8 0.9 -0.1
v -0.7 0.9 -0.1
v -0.5 0.9 -0.1
v -1.7 0.9 -0.2
v -1.2 0.9 -0.2
v -1.1 0.9 -0.2
v -0.8 0.9 -0.2
v -0.7 0.9 -0.2
v -0.5 0.9 -0.2
v -1.2 0.9 -0.3
v -0.7 0.9 -0.3
v -1.1 1 -0.1
v -0.8 1 -0.1
v -1.1 1 -0.2
v -0.8 1 -0.2

# faces
f 3/2/1 2/2/1 1/2/1
f 4/2/1 2/2/1 3/2/1
f 8/2/1 6/2/1 5/2/1
f 9/2/1 6/2/1 8/2/1
f 11/2/1 8/2/1 7/2/1
f 12/2/1 8/2/1 11/2/1
f 13/2/1 10/2/1 9/2/1
f 14/2/1 10/2/1 13/2/1
f 15/2/1 13/2/1 12/2/1
f 16/2/1 13/2/1 15/2/1
f 21/2/1 18/2/1 17/2/1
f 22/2/1 18/2/1 21/2/1
f 23/2/1 20/2/1 19/2/1
f 24/2/1 20/2/1 23/2/1
f 29/2/1 26/2/1 25/2/1
f 30/2/1 26/2/1 29/2/1
f 31/2/1 28/2/1 27/2/1
f 32/2/1 28/2/1 31/2/1
f 35/1/1 34/1/1 33/1/1
f 36/1/1 34/1/1 35/1/1
f 39/1/1 38/1/1 37/1/1
f 40/1/1 38/1/1 39/1/1
f 43/1/1 42/1/1 41/1/1
f 44/1/1 42/1/1 43/1/1
f 47/1/1 46/1/1 45/1/1
f 48/1/1 46/1/1 47/1/1
f 51/1/1 50/1/1 49/1/1
f 52/1/1 50/1/1 51/1/1
f 55/1/1 54/1/1 53/1/1
f 56/1/1 54/1/1 55/1/1
f 57/1/2 58/1/2 59/1/2
f 59/1/2 58/1/2 60/1/2
f 61/2/2 62/2/2 65/2/2
f 65/2/2 62/2/2 66/2/2
f 63/2/2 64/2/2 67/2/2
f 67/2/2 64/2/2 68/2/2
f 69/1/2 70/1/2 71/1/2
f 71/1/2 70/1/2 72/1/2
f 73/2/2 74/2/2 77/2/2
f 77/2/2 74/2/2 78/2/2
f 75/2/2 76/2/2 79/2/2
f 79/2/2 76/2/2 80/2/2
f 81/1/2 82/1/2 83/1/2
f 83/1/2 82/1/2 84/1/2
f 85/2/2 86/2/2 88/2/2
f 88/2/2 86/2/2 89/2/2
f 87/2/2 88/2/2 91/2/2
f 89/2/2 90/2/2 91/2/2
f 88/2/2 89/2/2 91/2/2
f 91/2/2 90/2/2 92/2/2
f 92/2/2 90/2/2 93/2/2
f 93/2/2 90/2/2 94/2/2
f 92/2/2 93/2/2 95/2/2
f 95/2/2 93/2/2 96/2/2
f 100/2/3 98/2/3 97/2/3
f 101/2/3 98/2/3 100/2/3
f 103/2/3 100/2/3 99/2/3
f 103/2/3 102/2/3 101/2/3
f 103/2/3 101/2/3 100/2/3
f 104/2/3 102/2/3 103/2/3
f 105/2/3 102/2/3 104/2/3
f 106/2/3 102/2/3 105/2/3
f 107/2/3 105/2/3 104/2/3
f 108/2/3 105/2/3 107/2/3
f 112/2/3 110/2/3 109/2/3
f 113/2/3 110/2/3 112/2/3
f 115/2/3 112/2/3 111/2/3
f 116/2/3 112/2/3 115/2/3
f 117/2/3 114/2/3 113/2/3
f 118/2/3 114/2/3 117/2/3
f 124/1/3 120/1/3 119/1/3
f 125/1/3 120/1/3 124/1/3
f 127/1/3 124/1/3 123/1/3
f 128/1/3 124/1/3 127/1/3
f 132/1/3 129/1/3 128/1/3
f 132/1/3 127/1/3 126/1/3
f 132/1/3 128/1/3 127/1/3
f 133/1/3 122/1/3 121/1/3
f 134/1/3 122/1/3 133/1/3
f 137/1/3 132/1/3 131/1/3
f 138/2/3 130/2/3 129/2/3
f 138/1/3 132/1/3 137/1/3
f 138/1/3 129/1/3 132/1/3
f 139/2/3 130/2/3 138/2/3
f 140/2/3 130/2/3 139/2/3
f 141/2/3 136/2/3 135/2/3
f 142/2/3 136/2/3 141/2/3
f 143/2/4 144/2/4 146/2/4
f 146/2/4 144/2/4 147/2/4
f 145/2/4 146/2/4 149/2/4
f 149/2/4 146/2/4 150/2/4
f 147/2/4 148/2/4 151/2/4
f 151/2/4 148/2/4 152/2/4
f 153/1/4 154/1/4 158/1/4
f 158/1/4 154/1/4 159/1/4
f 157/1/4 158/1/4 161/1/4
f 161/1/4 158/1/4 162/1/4
f 162/1/4 163/1/4 166/1/4
f 160/1/4 161/1/4 166/1/4
f 161/1/4 162/1/4 166/1/4
f 155/1/4 156/1/4 167/1/4
f 167/1/4 156/1/4 168/1/4
f 165/1/4 166/1/4 171/1/4
f 163/2/4 164/2/4 172/2/4
f 171/1/4 166/1/4 172/1/4
f 166/1/4 163/1/4 172/1/4
f 172/2/4 164/2/4 173/2/4
f 173/2/4 164/2/4 174/2/4
f 169/2/4 170/2/4 175/2/4
f 175/2/4 170/2/4 176/2/4
f 177/2/4 178/2/4 180/2/4
f 180/2/4 178/2/4 181/2/4
f 179/2/4 180/2/4 183/2/4
f 181/2/4 182/2/4 183/2/4
f 180/2/4 181/2/4 183/2/4
f 183/2/4 182/2/4 184/2/4
f 184/2/4 182/2/4 185/2/4
f 185/2/4 182/2/4 186/2/4
f 184/2/4 185/2/4 187/2/4
f 187/2/4 185/2/4 188/2/4
f 191/1/5 190/1/5 189/1/5
f 192/1/5 190/1/5 191/1/5
f 195/1/5 194/1/5 193/1/5
f 196/1/5 194/1/5 195/1/5
f 199/1/5 198/1/5 197/1/5
f 200/1/5 198/1/5 199/1/5
f 203/1/5 202/1/5 201/1/5
f 204/1/5 202/1/5 203/1/5
f 208/2/5 206/2/5 205/2/5
f 209/2/5 206/2/5 208/2/5
f 210/2/5 206/2/5 209/2/5
f 211/2/5 206/2/5 210/2/5
f 214/2/5 208/2/5 207/2/5
f 214/2/5 209/2/5 208/2/5
f 215/2/5 209/2/5 214/2/5
f 216/2/5 209/2/5 215/2/5
f 217/2/5 211/2/5 210/2/5
f 218/2/5 211/2/5 217/2/5
f 219/2/5 213/2/5 212/2/5
f 220/2/5 213/2/5 219/2/5
f 221/2/5 218/2/5 217/2/5
f 221/2/5 216/2/5 215/2/5
f 221/2/5 217/2/5 216/2/5
f 222/2/5 218/2/5 221/2/5
f 228/2/5 224/2/5 223/2/5
f 229/2/5 224/2/5 228/2/5
f 230/2/5 226/2/5 225/2/5
f 231/2/5 226/2/5 230/2/5
f 232/2/5 228/2/5 227/2/5
f 233/2/5 228/2/5 232/2/5
f 237/2/5 234/2/5 233/2/5
f 238/2/5 234/2/5 237/2/5
f 239/2/5 236/2/5 235/2/5
f 240/2/5 236/2/5 239/2/5
f 241/1/6 242/1/6 243/1/6
f 243/1/6 242/1/6 244/1/6
f 245/2/6 246/2/6 250/2/6
f 250/2/6 246/2/6 251/2/6
f 247/2/6 248/2/6 252/2/6
f 252/2/6 248/2/6 253/2/6
f 249/2/6 250/2/6 254/2/6
f 254/2/6 250/2/6 255/2/6
f 255/2/6 256/2/6 259/2/6
f 259/2/6 256/2/6 260/2/6
f 257/2/6 258/2/6 261/2/6
f 261/2/6 258/2/6 262/2/6
f 263/2/6 264/2/6 266/2/6
f 266/2/6 264/2/6 267/2/6
f 267/2/6 264/2/6 268/2/6
f 268/2/6 264/2/6 269/2/6
f 265/2/6 266/2/6 271/2/6
f 266/2/6 267/2/6 271/2/6
f 271/2/6 267/2/6 272/2/6
f 272/2/6 267/2/6 273/2/6
f 269/2/6 270/2/6 274/2/6
f 268/2/6 269/2/6 274/2/6
f 274/2/6 270/2/6 275/2/6
f 275/2/6 270/2/6 276/2/6
f 272/2/6 273/2/6 277/2/6
f 274/2/6 275/2/6 277/2/6
f 273/2/6 274/2/6 277/2/6
f 277/2/6 275/2/6 278/2/6
f 279/1/6 280/1/6 281/1/6
f 281/1/6 280/1/6 282/1/6
